<svg width="168" height="65" viewBox="0 0 168 65" fill="none" xmlns="http://www.w3.org/2000/svg">
<path d="M19.1052 11.1292V9.68308C19.1254 8.42223 18.8883 7.17051 18.4083 6.00441C17.9283 4.83832 17.2156 3.78237 16.3136 2.9011C15.4326 1.99799 14.3764 1.2842 13.2099 0.803448C12.0434 0.322694 10.791 0.0850889 9.52947 0.10518C8.27566 0.0879118 7.03152 0.326786 5.87326 0.80717C4.71499 1.28755 3.66699 1.99934 2.79344 2.89892C1.89051 3.78002 1.17699 4.8362 0.696602 6.00275C0.216213 7.1693 -0.0209312 8.42166 -0.000299754 9.68308C-0.0242191 10.9378 0.211619 12.1839 0.692398 13.3432C1.17318 14.5024 1.8885 15.5496 2.79344 16.4191C3.66741 17.318 4.71554 18.0292 5.87374 18.5091C7.03194 18.9891 8.27587 19.2278 9.52947 19.2107C10.2104 19.1979 10.8866 19.3259 11.5157 19.5868C12.1448 19.8477 12.7132 20.2358 13.1852 20.7268C13.6785 21.211 14.0686 21.7903 14.3318 22.4295C14.595 23.0687 14.7259 23.7547 14.7166 24.4459C14.7297 25.1231 14.6001 25.7955 14.3363 26.4193C14.0724 27.0431 13.6802 27.6044 13.1852 28.0666C12.7124 28.5612 12.1424 28.9527 11.511 29.2162C10.8796 29.4798 10.2005 29.6098 9.51635 29.598C8.83253 29.61 8.15366 29.4801 7.52257 29.2165C6.89148 28.9529 6.32187 28.5614 5.8497 28.0666C5.35864 27.6013 4.96911 27.0394 4.70557 26.4163C4.44203 25.7932 4.31017 25.1224 4.31829 24.4459V22.9976H-0.000299754V24.4459C-0.0170536 25.6997 0.222054 26.9436 0.702408 28.1018C1.18276 29.26 1.89427 30.3081 2.79344 31.182C3.66718 32.0811 4.71527 32.7925 5.87352 33.2725C7.03177 33.7525 8.27582 33.9911 9.52947 33.9735C10.7903 33.9937 12.0421 33.7566 13.2081 33.2766C14.3742 32.7967 15.4302 32.0839 16.3115 31.182C17.2096 30.3092 17.9206 29.2626 18.4009 28.1059C18.8813 26.9493 19.1209 25.707 19.1052 24.4547C19.1254 23.1938 18.8883 21.9421 18.4083 20.776C17.9283 19.6099 17.2156 18.554 16.3136 17.6727C15.4326 16.7702 14.3768 16.057 13.2107 15.5766C12.0445 15.0963 10.7927 14.8589 9.53166 14.879C8.84784 14.8909 8.16897 14.761 7.53788 14.4974C6.90679 14.2338 6.33719 13.8423 5.86502 13.3475C5.37056 12.8751 4.97924 12.3055 4.71568 11.6744C4.45212 11.0434 4.32203 10.3647 4.3336 9.68089C4.32051 9.00013 4.44822 8.324 4.70874 7.69492C4.96925 7.06584 5.35695 6.49738 5.84752 6.02519C6.32766 5.53923 6.90174 5.15612 7.53475 4.89923C8.16776 4.64234 8.84646 4.51704 9.52947 4.53097C10.2095 4.51635 10.8853 4.64011 11.516 4.89472C12.1467 5.14932 12.719 5.52947 13.1983 6.01206C13.6927 6.48497 14.084 7.05502 14.3475 7.68639C14.6111 8.31777 14.7412 8.99682 14.7297 9.68089V11.127L19.1052 11.1292Z" fill="#9B468A"/>
<path d="M111.176 12.4256C109.49 10.6924 107.239 9.6209 104.831 9.40536C102.422 9.18982 100.017 9.84456 98.0497 11.2508V3.76221H93.707V33.3601H98.0541V19.6474C98.0377 18.8711 98.1794 18.0996 98.4705 17.3797C98.7616 16.6599 99.196 16.0068 99.7474 15.46C100.577 14.6327 101.633 14.0696 102.782 13.8415C103.931 13.6135 105.122 13.7308 106.205 14.1786C107.287 14.6265 108.213 15.3848 108.865 16.358C109.518 17.3312 109.867 18.4758 109.87 19.6474V33.3601H114.217V19.6474C114.235 18.299 113.974 16.9616 113.451 15.7188C112.928 14.4761 112.153 13.3549 111.176 12.4256Z" fill="#9B468A"/>
<path d="M39.7681 12.4256C38.0822 10.6924 35.8309 9.6209 33.4227 9.40536C31.0144 9.18982 28.6086 9.84456 26.6417 11.2508V3.76221H22.2969V33.3601H26.6461V19.6474C26.6294 18.8712 26.7706 18.0998 27.0614 17.3799C27.3521 16.6601 27.7862 16.0069 28.3372 15.46C28.8862 14.9074 29.5391 14.4688 30.2583 14.1695C30.9775 13.8702 31.7488 13.7161 32.5278 13.7161C33.3068 13.7161 34.0781 13.8702 34.7973 14.1695C35.5165 14.4688 36.1694 14.9074 36.7184 15.46C37.2833 15.9994 37.7304 16.6499 38.0316 17.3706C38.3328 18.0912 38.4816 18.8664 38.4686 19.6474V33.3601H42.8156V19.6474C42.833 18.2986 42.5712 16.9607 42.0467 15.718C41.5223 14.4752 40.7465 13.3543 39.7681 12.4256Z" fill="#9B468A"/>
<path d="M75.4935 3.76221H71.1465V33.3535H75.4935V3.76221Z" fill="#9B468A"/>
<path d="M80.2193 21.616C80.2171 21.2026 80.297 20.7928 80.4544 20.4105C80.6117 20.0282 80.8434 19.681 81.1359 19.3889L90.6766 9.84814H84.5335L78.0643 16.3195C76.6635 17.7262 75.877 19.6307 75.877 21.616C75.877 23.6013 76.6635 25.5057 78.0643 26.9125L84.5029 33.3597H90.646L81.1359 23.8496C80.8426 23.5568 80.6105 23.2084 80.4531 22.8249C80.2957 22.4415 80.2162 22.0305 80.2193 21.616Z" fill="#9B468A"/>
<path d="M138.181 39.3916C138.181 39.9472 138.016 40.4903 137.707 40.9522C137.399 41.4141 136.96 41.7742 136.447 41.9868C135.933 42.1994 135.368 42.255 134.824 42.1466C134.279 42.0383 133.778 41.7707 133.385 41.3779C132.992 40.985 132.725 40.4845 132.616 39.9396C132.508 39.3947 132.564 38.8299 132.776 38.3166C132.989 37.8033 133.349 37.3646 133.811 37.0559C134.273 36.7473 134.816 36.5825 135.372 36.5825C136.117 36.5825 136.831 36.8785 137.358 37.4053C137.885 37.9321 138.181 38.6466 138.181 39.3916Z" fill="#00BADA"/>
<path d="M51.7587 10.749C51.7587 11.3046 51.594 11.8477 51.2853 12.3096C50.9767 12.7716 50.5379 13.1316 50.0247 13.3442C49.5114 13.5568 48.9466 13.6125 48.4017 13.5041C47.8568 13.3957 47.3562 13.1281 46.9634 12.7353C46.5705 12.3424 46.303 11.8419 46.1946 11.297C46.0862 10.7521 46.1418 10.1873 46.3545 9.67401C46.5671 9.16073 46.9271 8.72201 47.3891 8.41335C47.851 8.10469 48.3941 7.93994 48.9497 7.93994C49.6947 7.93994 50.4092 8.23589 50.936 8.76269C51.4628 9.28949 51.7587 10.004 51.7587 10.749Z" fill="#00BADA"/>
<path d="M135.534 26.1555C134.873 27.0952 134.013 27.8787 133.017 28.4511C132.02 29.0234 130.91 29.3706 129.765 29.4684C128.62 29.5661 127.467 29.4121 126.388 29.017C125.308 28.622 124.329 27.9955 123.517 27.1815C122.13 25.8032 121.311 23.9544 121.222 22.001H141.253V21.5459C141.239 18.3315 139.951 15.2538 137.673 12.9863C135.394 10.7189 132.31 9.44656 129.096 9.44775C125.9 9.49063 122.849 10.7905 120.604 13.0659C118.358 15.3414 117.1 18.4095 117.1 21.6061C117.1 24.8027 118.358 27.8708 120.604 30.1462C122.849 32.4217 125.9 33.7216 129.096 33.7644C130.693 33.7688 132.275 33.4565 133.75 32.8455C135.226 32.2345 136.565 31.337 137.692 30.205C138.04 29.8579 138.366 29.4888 138.667 29.1002L138.919 28.7808L135.856 25.7179L135.534 26.1555ZM123.519 16.0285C124.368 15.1821 125.398 14.5402 126.532 14.1514C127.666 13.7627 128.873 13.6374 130.062 13.785C131.252 13.9326 132.392 14.3493 133.396 15.0034C134.4 15.6575 135.242 16.5317 135.858 17.5599H122.331C122.663 17.0023 123.062 16.4879 123.519 16.0285Z" fill="#9B468A"/>
<path d="M161.78 26.1555C161.519 26.5233 161.227 26.8674 160.905 27.1837C159.425 28.6613 157.418 29.4911 155.326 29.4911C153.235 29.4911 151.228 28.6613 149.748 27.1837C148.361 25.8054 147.542 23.9566 147.453 22.0032H167.484V21.5459C167.469 18.3345 166.184 15.2594 163.91 12.9925C161.635 10.7256 158.555 9.45119 155.344 9.44775C152.148 9.49063 149.097 10.7905 146.852 13.0659C144.606 15.3414 143.348 18.4095 143.348 21.6061C143.348 24.8027 144.606 27.8708 146.852 30.1462C149.097 32.4217 152.148 33.7216 155.344 33.7644C156.941 33.769 158.523 33.4568 159.998 32.8458C161.474 32.2349 162.813 31.3372 163.94 30.205C164.288 29.8577 164.614 29.4887 164.915 29.1002L165.167 28.7808L162.104 25.7179L161.78 26.1555ZM148.577 17.5467C149.278 16.3792 150.27 15.413 151.455 14.7422C152.64 14.0714 153.979 13.7189 155.341 13.7189C156.703 13.7189 158.041 14.0714 159.226 14.7422C160.412 15.413 161.403 16.3792 162.104 17.5467H148.577Z" fill="#9B468A"/>
<path d="M62.5828 9.61838V23.6199C62.5989 24.3665 62.4629 25.1086 62.1831 25.8011C61.9033 26.4935 61.4855 27.1217 60.9551 27.6475C60.428 28.1791 59.8008 28.6011 59.1097 28.889C58.4186 29.177 57.6773 29.3253 56.9286 29.3253C56.1799 29.3253 55.4387 29.177 54.7476 28.889C54.0565 28.6011 53.4293 28.1791 52.9021 27.6475C52.3505 27.1118 51.9149 26.4684 51.6223 25.7573L50.8828 23.9305L51.1825 25.8776C51.5669 28.4054 52.188 30.8913 53.0377 33.3028L53.0727 33.4012L53.169 33.4384C54.3686 33.9009 55.644 34.1354 56.9297 34.1298C58.3102 34.1471 59.6794 33.8787 60.9512 33.3415C62.223 32.8042 63.3699 32.0097 64.3199 31.0079C65.3064 30.0484 66.0869 28.8977 66.6135 27.6263C67.1402 26.3549 67.4019 24.9894 67.3827 23.6133V9.61182L62.5828 9.61838Z" fill="#9B468A"/>
<path style="mix-blend-mode:multiply" d="M62.5828 9.61838V23.6199C62.5989 24.3665 62.4629 25.1086 62.1831 25.8011C61.9033 26.4935 61.4855 27.1217 60.9551 27.6475C60.428 28.1791 59.8008 28.6011 59.1097 28.889C58.4186 29.177 57.6773 29.3253 56.9286 29.3253C56.1799 29.3253 55.4387 29.177 54.7476 28.889C54.0565 28.6011 53.4293 28.1791 52.9021 27.6475C52.3505 27.1118 51.9149 26.4684 51.6223 25.7573L50.8828 23.9305L51.1825 25.8776C51.5669 28.4054 52.188 30.8913 53.0377 33.3028L53.0727 33.4012L53.169 33.4384C54.3686 33.9009 55.644 34.1354 56.9297 34.1298C58.3102 34.1471 59.6794 33.8787 60.9512 33.3415C62.223 32.8042 63.3699 32.0097 64.3199 31.0079C65.3064 30.0484 66.0869 28.8977 66.6135 27.6263C67.1402 26.3549 67.4019 24.9894 67.3827 23.6133V9.61182L62.5828 9.61838Z" fill="url(#paint0_linear_3538_6246)"/>
<path d="M50.7553 16.0044H46.4083C46.3492 16.9976 46.3208 17.9734 46.3164 18.9535H50.6919C50.6831 17.9799 50.7006 16.9976 50.7553 16.0044Z" fill="url(#paint1_linear_3538_6246)"/>
<path d="M132.296 43.2841C131.851 42.9381 131.291 42.7769 130.73 42.8339C130.17 42.891 129.653 43.1619 129.288 43.5904C124.942 48.6724 119.544 52.7491 113.467 55.5385C107.391 58.3278 100.78 59.7629 94.0936 59.7446C81.105 59.7446 69.0703 54.8835 61.0763 46.3995C54.2484 39.158 50.6933 29.6611 50.6846 18.9478H46.3091C46.2566 30.8622 50.2317 41.2626 57.9041 49.3901C66.725 58.7361 79.9105 64.1048 94.0936 64.1048C101.413 64.1249 108.65 62.5527 115.302 59.4973C121.954 56.442 127.861 51.9764 132.615 46.4104C132.804 46.1861 132.946 45.9261 133.032 45.646C133.118 45.3659 133.147 45.0712 133.118 44.7796C133.088 44.488 133 44.2054 132.859 43.9484C132.717 43.6915 132.526 43.4656 132.296 43.2841Z" fill="url(#paint2_linear_3538_6246)"/>
<defs>
<linearGradient id="paint0_linear_3538_6246" x1="50.8828" y1="21.8719" x2="67.3871" y2="21.8719" gradientUnits="userSpaceOnUse">
<stop stop-color="#B1B3B5"/>
<stop offset="0.15" stop-color="#CACCCD"/>
<stop offset="0.33" stop-color="#E2E2E3"/>
<stop offset="0.52" stop-color="#F2F2F3"/>
<stop offset="0.73" stop-color="#FCFCFC"/>
<stop offset="1" stop-color="white"/>
</linearGradient>
<linearGradient id="paint1_linear_3538_6246" x1="48.5391" y1="15.9935" x2="48.5391" y2="18.7763" gradientUnits="userSpaceOnUse">
<stop offset="0.03" stop-color="#9B468A"/>
<stop offset="0.07" stop-color="#9E4A8D"/>
<stop offset="0.12" stop-color="#A55796"/>
<stop offset="0.17" stop-color="#B26BA6"/>
<stop offset="0.21" stop-color="#C488BB"/>
<stop offset="0.38" stop-color="#B671AA"/>
<stop offset="0.61" stop-color="#A75998"/>
<stop offset="0.82" stop-color="#9E4B8E"/>
<stop offset="1" stop-color="#9B468A"/>
</linearGradient>
<linearGradient id="paint2_linear_3538_6246" x1="58.6304" y1="10.0874" x2="94.5727" y2="45.8219" gradientUnits="userSpaceOnUse">
<stop stop-color="#9B468A"/>
<stop offset="0.04" stop-color="#9B468A"/>
<stop offset="0.08" stop-color="#9B468A"/>
<stop offset="1" stop-color="#33C2DF"/>
</linearGradient>
</defs>
</svg>
